<?xml version="1.0" encoding="UTF-8" standalone="no"?>
<svg
   xmlns:dc="http://purl.org/dc/elements/1.1/"
   xmlns:cc="http://creativecommons.org/ns#"
   xmlns:rdf="http://www.w3.org/1999/02/22-rdf-syntax-ns#"
   xmlns:svg="http://www.w3.org/2000/svg"
   xmlns="http://www.w3.org/2000/svg"
   viewBox="0 0 755.90533 755.90533"
   height="755.90533"
   width="755.90533"
   xml:space="preserve"
   id="svg2"
   version="1.1"><metadata
     id="metadata8"><rdf:RDF><cc:Work
         rdf:about=""><dc:format>image/svg+xml</dc:format><dc:type
           rdf:resource="http://purl.org/dc/dcmitype/StillImage" /></cc:Work></rdf:RDF></metadata><defs
     id="defs6"><clipPath
       id="clipPath18"
       clipPathUnits="userSpaceOnUse"><path
         id="path16"
         d="M 0,566.929 H 566.929 V 0 H 0 Z" /></clipPath></defs><g
     transform="matrix(1.3333333,0,0,-1.3333333,0,755.90533)"
     id="g10"><g
       id="g12"><g
         clip-path="url(#clipPath18)"
         id="g14"><g
           transform="translate(237.2472,368.5094)"
           id="g20"><path
             id="path22"
             style="fill:#cad6ff;fill-opacity:1;fill-rule:nonzero;stroke:none"
             d="m 0,0 c -1.217,2.437 -4.328,2.317 -5.197,-0.2 l -4.024,-11.657 c -0.155,-0.424 0.1,-1.174 0.342,-1.666 5.169,-10.495 10.343,-20.986 15.558,-31.453 4.856,-9.748 9.928,-19.373 14.553,-29.249 1.616,-3.453 3.751,-5.314 6.781,-6.686 2.886,-1.306 5.765,-2.636 8.639,-3.979 2.541,-1.186 4.859,1.796 3.503,4.511 z" /></g><g
           transform="translate(233.4708,400.1079)"
           id="g24"><path
             id="path26"
             style="fill:#1d2786;fill-opacity:1;fill-rule:nonzero;stroke:none"
             d="m 0,0 -21.838,-67.445 c -4.579,-14.14 -9.158,-28.28 -13.736,-42.42 -0.238,-0.735 -0.476,-1.471 -0.715,-2.206 -0.297,-0.919 -0.595,-1.838 -0.892,-2.757 -0.081,-0.286 -0.246,-0.699 -0.546,-1.142 -0.222,-0.328 -0.481,-0.599 -0.766,-0.798 -1.19,-0.827 -2.38,-1.655 -3.57,-2.483 -8.963,-6.236 -17.926,-12.471 -26.888,-18.707 -0.152,-0.101 -0.375,-0.235 -0.663,-0.348 -0.67,-0.263 -1.372,-0.29 -2.075,-0.187 -1.866,0.271 -2.385,2.286 -1.61,5.413 0.013,0.045 0.027,0.092 0.04,0.137 L -28.777,3.518 c 0.458,1.407 1.402,2.301 2.432,2.303 L -2.387,5.865 C -0.403,5.869 0.88,2.717 0,0" /></g><g
           transform="translate(233.3849,332.7162)"
           id="g28"><path
             id="path30"
             style="fill:#978eff;fill-opacity:1;fill-rule:nonzero;stroke:none"
             d="m 0,0 -7.59,-22.122 c -0.065,-0.192 -5.011,-14.606 -5.076,-14.798 -10e-4,0 -0.256,-0.743 -0.256,-0.744 -0.036,-0.101 -0.103,-0.245 -0.23,-0.392 -0.185,-0.213 -0.403,-0.328 -0.53,-0.383 -5.447,-3.151 -10.893,-6.303 -16.339,-9.454 -1.427,-0.54 -2.179,-0.056 -2.444,1.284 l 15.538,44.819 c 0.161,0.462 0.64,0.819 1.236,0.921 L -1.822,1.502 C -0.673,1.698 0.306,0.891 0,0" /></g><g
           transform="translate(230.7565,314.5741)"
           id="g32"><path
             id="path34"
             style="fill:#1d2786;fill-opacity:1;fill-rule:nonzero;stroke:none"
             d="M 0,0 11.345,4.783 C 12.657,5.337 14.06,4.327 13.578,3.176 L 10.895,-3.237 C 10.748,-3.588 10.44,-3.879 10.04,-4.046 L -0.556,-8.464 c -1.258,-0.524 -2.623,0.386 -2.263,1.51 l 1.934,6.048 C -0.76,-0.516 -0.436,-0.184 0,0" /></g><g
           transform="translate(0,566.9291)"
           id="g36"><path
             id="path38"
             style="fill:#978eff;fill-opacity:1;fill-rule:nonzero;stroke:none"
             d="M 0,0 Z" /></g><g
           transform="translate(249.7424,401.7025)"
           id="g40"><path
             id="path42"
             style="fill:#7d85ff;fill-opacity:1;fill-rule:nonzero;stroke:none"
             d="m 0,0 c -0.78,1.715 -2.411,2.85 -4.128,2.879 -1.897,0.031 -3.557,-1.057 -4.022,-3.26 -0.146,-0.693 -0.411,-1.362 -0.611,-2.052 -1.74,-6.004 -2.702,-11.089 -3.957,-17.602 -0.023,-0.363 -0.041,-0.832 0.098,-1.35 0.136,-0.503 0.345,-1.019 0.546,-1.428 8.528,-17.426 17.065,-34.846 25.659,-52.224 8.004,-16.185 15.63,-32.523 23.987,-48.565 0.401,-0.768 1.29,-2.541 2.888,-4.4 0.898,-1.044 1.858,-1.933 2.232,-2.279 1.069,-0.986 1.958,-1.667 2.765,-2.283 1.078,-0.822 1.784,-1.299 2.824,-2.02 3.073,-2.133 3.143,-2.299 4.309,-3.066 3.108,-2.046 5.661,-3.727 8.741,-3.426 0.872,0.086 2.847,0.279 4.135,1.927 1.758,2.249 0.801,5.372 0.696,5.695 z" /></g></g></g><text
       id="text46"
       style="font-variant:normal;font-weight:normal;font-stretch:normal;font-size:24px;font-family:'Recoleta DEMO';-inkscape-font-specification:Recoleta-RegularDEMO;writing-mode:lr-tb;fill:#000000;fill-opacity:1;fill-rule:nonzero;stroke:none"
       transform="matrix(1,0,0,-1,114.8789,229.2627)"><tspan
         id="tspan44"
         y="0"
         x="0 16.056 34.056 50.855999 57.672001 72.216003 78.959999 97.440002 115.44 125.424 141.48 158.52 175.32001 182.136 196.67999 215.16 229.992">ANVISION ADVISORY</tspan></text>
</g></svg>